<svg height="512" viewBox="0 0 512 512" width="512" xmlns="http://www.w3.org/2000/svg"><path d="m256 0c-141.2 0-256 114.8-256 256s114.8 256 256 256 256-114.8 256-256-114.8-256-256-256zm0 0" fill="#f44336"/><path d="m350.3 320.1c8.3 8.3 8.3 21.8 0 30.2-4.2 4.2-9.6 6.3-15.1 6.3-5.5 0-10.9-2.1-15.1-6.2l-64.1-64.1-64.1 64.1c-4.2 4.2-9.6 6.3-15.1 6.3-5.5 0-10.9-2.1-15.1-6.2-8.3-8.3-8.3-21.8 0-30.2l64.1-64.1-64.1-64.1c-8.3-8.3-8.3-21.8 0-30.2 8.3-8.3 21.8-8.3 30.2 0l64.1 64.1 64.1-64.1c8.3-8.3 21.8-8.3 30.2 0 8.3 8.3 8.3 21.8 0 30.2l-64.1 64.1zm0 0" fill="#fafafa"/></svg>